<svg width="26.67" height="26.67" viewBox="0 0 28 28" fill="none" xmlns="http://www.w3.org/2000/svg">
<path d="M11.82 23.2453C11.82 23.2453 12.078 24.2896 12.8434 25.5468C13.4696 26.5744 14.235 27.3332 14.5075 27.3332C14.78 27.3332 16.0527 25.964 16.5978 24.6508C16.7746 24.228 17.024 22.9429 17.024 22.9429C17.024 22.9429 18.1894 23.8808 18.9084 24.312C19.6274 24.7432 21.0828 25.2696 21.2973 25.082C21.5119 24.8944 21.8424 23.2257 21.8424 22.6069C21.8424 21.9881 21.7409 20.8457 21.7409 20.8457C21.7409 20.8457 22.7411 21.1817 23.837 21.2573C24.6516 21.3133 25.7388 21.2377 25.9157 20.9941C26.0896 20.7505 25.5098 19.2301 25.0604 18.5553C24.44 17.6174 23.5065 16.979 23.5065 16.979C23.5065 16.979 24.9039 16.5114 25.8374 15.9654C26.7709 15.4222 27.3334 14.8202 27.3334 14.8202C27.3334 14.8202 26.4607 13.8262 25.5272 13.2271C24.5937 12.6279 23.5065 12.1771 23.5065 12.1771C23.5065 12.1771 24.7502 11.4631 25.7011 10.5447C26.3244 9.94272 26.8463 8.87594 26.8463 8.87594C26.8463 8.87594 25.6026 8.14515 24.3211 7.84556C23.0397 7.54597 21.6017 7.84556 21.6017 7.84556C21.6017 7.84556 22.3004 6.66398 22.4744 5.50201C22.6483 4.34003 22.3787 3.34605 22.3787 3.34605C22.3787 3.34605 20.8653 3.23405 19.5433 4.09644C18.2242 4.95882 17.8937 5.61681 17.8937 5.61681C17.8937 5.61681 18.0358 4.10764 17.7053 2.79446C17.4211 1.66608 16.6123 0.666504 16.6123 0.666504C16.6123 0.666504 15.5425 0.907299 14.5713 2.23727C13.8784 3.18645 13.5508 4.70962 13.5508 4.70962C13.5508 4.70962 12.9622 3.13885 12.223 2.33247C11.4837 1.52609 10.611 1.0557 10.4371 1.0809C10.2631 1.1061 9.42818 2.20647 9.23394 3.97044C9.09478 5.23881 9.52385 6.0536 9.52385 6.0536C9.52385 6.0536 8.37869 5.25281 7.25092 4.87202C5.81294 4.38483 4.5547 4.31483 4.45323 4.40443C4.35176 4.49403 4.25899 5.866 4.8997 7.44237C5.31138 8.45875 6.06516 9.26233 6.06516 9.26233C6.06516 9.26233 4.78954 8.85074 3.1921 8.94314C1.89038 9.01874 1.02643 9.35473 0.977148 9.46953C0.927862 9.58433 1.42942 10.8079 2.43252 11.7571C3.40374 12.6755 4.54891 13.1263 4.54891 13.1263C4.54891 13.1263 3.24139 13.4566 2.23538 14.0978C1.04383 14.8594 0.655341 15.8478 0.666938 15.9766C0.678535 16.1054 1.60047 17.0462 2.74563 17.3654C3.8908 17.6846 4.92 17.5334 4.92 17.5334C4.92 17.5334 3.79513 18.4349 3.17181 19.6333C2.71664 20.5097 2.36294 21.6045 2.45282 21.7165C2.54269 21.8285 3.71105 22.2121 4.95768 22.0553C6.58991 21.8481 7.6365 21.1369 7.6365 21.1369C7.6365 21.1369 7.17844 22.6181 7.21613 23.7072C7.25382 24.7936 7.59302 25.8296 7.73218 25.9024C7.87134 25.9752 9.30642 25.5468 10.2747 24.8328C11.2546 24.1076 11.82 23.2453 11.82 23.2453Z" fill="#B0E0F4"/>
</svg>
