<svg width="24" height="24" viewBox="0 0 24 24" fill="none" xmlns="http://www.w3.org/2000/svg">
<rect width="24" height="24" rx="4" fill="#2E2E2E"/>
<path d="M3.50874 10.1061C3.74315 9.87172 4.06104 9.74007 4.39249 9.74007C4.72395 9.74007 5.04183 9.87172 5.27624 10.1061L9.69624 14.5261L18.5337 5.6873C18.6498 5.57117 18.7876 5.47902 18.9393 5.41614C19.0909 5.35326 19.2535 5.32086 19.4177 5.3208C19.5819 5.32074 19.7445 5.35302 19.8962 5.4158C20.0479 5.47858 20.1857 5.57062 20.3019 5.68668C20.418 5.80273 20.5101 5.94053 20.573 6.09219C20.6359 6.24386 20.6683 6.40643 20.6684 6.57061C20.6684 6.7348 20.6361 6.89739 20.5734 7.0491C20.5106 7.20081 20.4186 7.33867 20.3025 7.4548L9.69624 18.0611L3.50874 11.8736C3.27441 11.6391 3.14276 11.3213 3.14276 10.9898C3.14276 10.6583 3.27441 10.3405 3.50874 10.1061Z" fill="white"/>
</svg>
